Coordinates
version=1
nRows=16
nColumns=40
inDegrees=yes

Units are S.I. units (second, meters, Newtons, ...)
Angles are in degrees.

endheader
time	pelvis_tilt	pelvis_list	pelvis_rotation	pelvis_tx	pelvis_ty	pelvis_tz	hip_flexion_r	hip_adduction_r	hip_rotation_r	knee_angle_r	knee_angle_r_beta	ankle_angle_r	subtalar_angle_r	mtp_angle_r	hip_flexion_l	hip_adduction_l	hip_rotation_l	knee_angle_l	knee_angle_l_beta	ankle_angle_l	subtalar_angle_l	mtp_angle_l	lumbar_extension	lumbar_bending	lumbar_rotation	arm_flex_r	arm_add_r	arm_rot_r	elbow_flex_r	pro_sup_r	wrist_flex_r	wrist_dev_r	arm_flex_l	arm_add_l	arm_rot_l	elbow_flex_l	pro_sup_l	wrist_flex_l	wrist_dev_l
     52.97000000	     -2.60495758	     -5.25966552	      0.31531519	      1.09762566	      0.93174536	      0.51926160	     11.97458894	      2.67576159	    -15.33145149	     15.43669012	     15.43669012	      8.49017125	      4.89166234	     -8.19900684	     26.41710279	    -14.60870022	     -0.86110363	     48.03356130	     48.03356130	     12.38973532	    -18.00841717	     12.23143579	    -10.72004785	      7.35709447	      3.49473386	     19.17547086	    -16.31729335	     -1.59316514	     42.82190762	     45.20630221	      0.00000000	      0.00000000	      8.68402582	     -6.82746691	     -9.72616289	     35.40677045	     44.69506516	      0.00000000	      0.00000000
     52.98335714	     -2.66919504	     -5.07787800	      0.73370031	      1.09684081	      0.93189530	      0.51934743	     11.68449177	      2.55252463	    -15.13215621	     15.39236363	     15.39236363	      8.71127311	      4.01166776	     -8.22135747	     27.42573203	    -14.28141829	     -0.74910114	     45.40277590	     45.40277590	     11.92030842	    -17.77479235	     12.16074673	    -10.79104592	      7.06762538	      3.05289871	     21.09727897	    -16.28264484	     -1.73116157	     44.93630379	     45.15184780	      0.00000000	      0.00000000	      7.17769112	     -6.83148060	     -9.88053527	     34.34446960	     44.72061705	      0.00000000	      0.00000000
     52.99671429	     -2.73628545	     -4.99892010	      1.14760597	      1.09608441	      0.93190424	      0.51948700	     11.40058202	      2.58753847	    -14.70533593	     15.32613073	     15.32613073	      8.81365841	      2.73268601	     -8.38742685	     28.16174279	    -14.08496032	     -0.79503341	     42.25883343	     42.25883343	     10.31071015	    -17.59352759	      9.51466485	    -10.93601648	      6.90257861	      3.29002300	     21.62953240	    -17.16011215	     -1.25478145	     49.98845311	     44.97762757	      0.00000000	      0.00000000	      6.33096410	     -6.45849366	    -10.89554112	     32.62141763	     44.95771793	      0.00000000	      0.00000000
     53.01007143	     -2.77059561	     -4.79300921	      1.55889406	      1.09537186	      0.93199363	      0.51940650	     11.10317778	      2.38685825	    -14.70379804	     15.35959526	     15.35959526	      9.09552967	      2.23627817	     -8.43708462	     28.71716054	    -13.62997598	     -0.82032869	     39.04401474	     39.04401474	      9.71792837	    -17.13764620	      9.78094255	    -11.05264064	      6.58839885	      2.94960935	     23.56677205	    -17.13931916	     -1.43487808	     51.82838271	     44.93549424	      0.00000000	      0.00000000	      4.99384615	     -6.47663572	    -10.99480718	     31.51562282	     44.97058500	      0.00000000	      0.00000000
     53.02342857	     -2.83196106	     -4.69366698	      2.01506773	      1.09463636	      0.93187485	      0.51921306	     10.87640301	      2.30858023	    -14.59168898	     15.45093326	     15.45093326	      9.37277196	      1.45036659	     -8.42543036	     29.23312391	    -13.20714645	     -0.75428061	     35.77225418	     35.77225418	      8.96193928	    -16.62931748	      9.58117783	    -11.16922087	      6.42200779	      2.45187286	     25.29872998	    -17.11917254	     -1.50543101	     54.68867108	     44.85464666	      0.00000000	      0.00000000	      3.72992021	     -6.46495221	    -11.22219422	     30.14528392	     45.01442435	      0.00000000	      0.00000000
     53.03678571	     -3.03677409	     -4.85103792	      2.48088687	      1.09383316	      0.93131824	      0.51889151	     10.81835267	      2.44888750	    -14.83199706	     15.54591126	     15.54591126	      9.62702162	      1.07042225	     -8.51261966	     30.01865590	    -13.03619714	     -0.69787007	     32.78169388	     32.78169388	      8.67229507	    -15.61063149	      9.93096675	    -11.02483352	      6.56078001	      2.73704535	     27.04141213	    -17.78905764	     -1.77046534	     55.86232925	     44.83508801	      0.00000000	      0.00000000	      2.67005280	     -6.26069509	    -11.27335888	     29.54426160	     45.01122488	      0.00000000	      0.00000000
     53.05014286	     -3.02139964	     -4.55358921	      2.89443543	      1.09331351	      0.93132425	      0.51840021	     10.49141172	      2.17205152	    -14.52027746	     15.63654436	     15.63654436	      9.97365203	      0.09238255	     -8.40595741	     29.96410433	    -12.35349522	     -0.97094534	     29.04913097	     29.04913097	      6.88682270	    -15.11446838	      6.98453749	    -11.37468026	      6.19042959	      3.04248403	     26.55053559	    -18.55342046	     -2.21792987	     63.75492985	     44.65212733	      0.00000000	      0.00000000	      2.70184341	     -6.01311104	    -12.60860202	     26.48674386	     45.39232745	      0.00000000	      0.00000000
     53.06350000	     -3.13378563	     -4.49879494	      3.36478767	      1.09272971	      0.93098324	      0.51772544	     10.31507311	      2.09707691	    -14.53190486	     15.73945514	     15.73945514	     10.31286568	     -0.57815084	     -8.38842662	     30.38530985	    -11.86214398	     -1.04561194	     26.11123607	     26.11123607	      6.71188078	    -13.83104617	      7.26155765	    -11.40687113	      6.11002646	      2.56205742	     28.22388027	    -18.38870208	     -2.43860339	     66.43044668	     44.59541704	      0.00000000	      0.00000000	      1.52455713	     -6.04111892	    -12.81506296	     25.63092790	     45.44091273	      0.00000000	      0.00000000
     53.07685714	     -3.26043315	     -4.37368986	      3.79638726	      1.09222020	      0.93072426	      0.51687302	     10.12524071	      1.92496723	    -14.58326044	     15.80968558	     15.80968558	     10.60741987	     -0.99306656	     -8.41641776	     30.70968489	    -11.27492288	     -1.15958540	     23.30675147	     23.30675147	      6.67567741	    -12.32170088	      7.56806371	    -11.39945535	      5.89928840	      2.26022799	     29.77512953	    -18.30009522	     -2.64371510	     68.64898168	     44.54265595	      0.00000000	      0.00000000	      0.46633869	     -6.07080141	    -12.90951200	     24.94386870	     45.45530732	      0.00000000	      0.00000000
     53.09021429	     -3.36963073	     -4.38812830	      4.24935054	      1.09182198	      0.93034843	      0.51588539	      9.88461270	      1.91161310	    -14.66222577	     15.82933201	     15.82933201	     10.95040121	     -1.46436514	     -8.29841400	     31.15881303	    -10.83292622	     -1.25194197	     21.03381960	     21.03381960	      6.72022259	    -10.68044568	      7.47366717	    -11.52789423	      5.90194506	      2.62234664	     29.96563290	    -19.03667311	     -3.28491126	     74.45961842	     44.42417421	      0.00000000	      0.00000000	     -0.10079529	     -5.96061338	    -13.30573267	     24.11285255	     45.59559012	      0.00000000	      0.00000000
     53.10357143	     -3.48991789	     -4.30430291	      4.68884975	      1.09157425	      0.93008765	      0.51468666	      9.59496898	      1.77207077	    -14.81681792	     15.77422989	     15.77422989	     11.25819059	     -1.72561689	     -8.32443456	     31.49952364	    -10.25244649	     -1.27192014	     18.98261891	     18.98261891	      6.86309665	     -9.20810194	      7.66889416	    -11.50331034	      5.75977437	      2.11006331	     31.55326485	    -18.60430880	     -3.63363908	     77.00398638	     44.37236634	      0.00000000	      0.00000000	     -1.11448974	     -6.02715789	    -13.35787484	     23.36235135	     45.60983050	      0.00000000	      0.00000000
     53.11692857	     -3.62888451	     -4.31675812	      5.09643663	      1.09146110	      0.92978956	      0.51339372	      9.27008739	      1.74110332	    -15.00419343	     15.61898392	     15.61898392	     11.54894229	     -1.87698279	     -8.29986369	     31.94468219	     -9.81827305	     -1.35939692	     17.49754979	     17.49754979	      7.14166535	     -7.62900826	      7.83615385	    -11.52282940	      5.77362830	      2.47145171	     31.97790665	    -18.99828667	     -4.47212841	     81.81220051	     44.29948749	      0.00000000	      0.00000000	     -1.68762171	     -5.95797965	    -13.52789632	     22.88881617	     45.69980034	      0.00000000	      0.00000000
     53.13028571	     -3.75271665	     -4.28229464	      5.45854215	      1.09156635	      0.92960089	      0.51195176	      8.88534722	      1.66696917	    -15.18018824	     15.41768275	     15.41768275	     11.81553318	     -1.99181545	     -8.31141587	     32.21479933	     -9.32243058	     -1.29222863	     16.23690871	     16.23690871	      7.32139607	     -6.60388836	      7.93896282	    -11.43053767	      5.70673760	      2.07224575	     33.54430441	    -18.51314742	     -4.71961060	     84.13946789	     44.24959661	      0.00000000	      0.00000000	     -2.57705329	     -5.97044162	    -13.54575192	     22.33736167	     45.70359183	      0.00000000	      0.00000000
     53.14364286	     -3.82662838	     -4.25849372	      5.79743891	      1.09189392	      0.92945776	      0.51038116	      8.34466128	      1.61326880	    -15.35585107	     15.05760847	     15.05760847	     12.05317987	     -1.91215673	     -8.30118768	     32.50216491	     -8.90175157	     -1.25406077	     15.62070129	     15.62070129	      7.51060389	     -5.70193442	      7.90221413	    -11.45129594	      5.65335144	      1.75118461	     34.68245845	    -18.07546221	     -4.96456971	     87.53529200	     44.17066336	      0.00000000	      0.00000000	     -3.50377841	     -5.98608352	    -13.61592915	     21.99431238	     45.72239722	      0.00000000	      0.00000000
     53.15700000	     -3.94835061	     -4.29734357	      6.04247708	      1.09238583	      0.92918680	      0.50877472	      7.88379735	      1.62213558	    -15.52241570	     14.75071077	     14.75071077	     12.30698421	     -1.84814061	     -8.31361158	     32.76083415	     -8.58640130	     -1.16610770	     15.35991018	     15.35991018	      7.62954938	     -5.27201003	      7.82753545	    -11.31837040	      5.69762345	      1.79518538	     36.06033754	    -17.95137214	     -5.22499133	     89.85539060	     44.12030257	      0.00000000	      0.00000000	     -4.17029201	     -5.92676409	    -13.66500012	     21.79980979	     45.73090584	      0.00000000	      0.00000000
     53.17035714	     -3.99955723	     -4.31029045	      6.23356963	      1.09334491	      0.92896281	      0.50712360	      7.21482957	      1.61758989	    -15.76773223	     14.26913298	     14.26913298	     12.54788668	     -1.44888705	     -8.36571935	     32.86937480	     -8.34434750	     -1.24436994	     15.52017621	     15.52017621	      7.71247378	     -4.91083533	      7.38199973	    -11.33666933	      5.66292052	      2.57057889	     35.91143736	    -18.45924916	     -6.10719146	     95.05428234	     44.03687948	      0.00000000	      0.00000000	     -4.67427433	     -5.88793051	    -13.85181714	     22.14918000	     45.80797743	      0.00000000	      0.00000000
